<svg xmlns="http://www.w3.org/2000/svg" xmlns:xlink="http://www.w3.org/1999/xlink" viewBox="0 0 1256.22 1226.66"><defs><style>.cls-1{fill:#dcf1ff;}.cls-2{fill:none;stroke-miterlimit:10;stroke-width:43px;stroke:url(#linear-gradient);}.cls-3{fill:url(#linear-gradient-2);}</style><linearGradient id="linear-gradient" x1="503.61" y1="576.33" x2="753.61" y2="576.33" gradientUnits="userSpaceOnUse"><stop offset="0" stop-color="#2196f3"/><stop offset="0.15" stop-color="#43a6f5"/><stop offset="0.33" stop-color="#64b6f7"/><stop offset="0.5" stop-color="#7cc1f8"/><stop offset="0.66" stop-color="#8bc8f9"/><stop offset="0.79" stop-color="#90caf9"/></linearGradient><linearGradient id="linear-gradient-2" x1="545.15" y1="849.03" x2="711.67" y2="543.07" xlink:href="#linear-gradient"/></defs><g id="Layer_2" data-name="Layer 2"><g id="Layer_1-2" data-name="Layer 1"><path class="cls-1" d="M1156.61,996.33c-76,90-174,160-289,198-108,35-218,43-332,17-124-28-228-90-312-184-77-88-124-192-138-308-15-121,10-239,75-346,60-96,144-166,246-207,134-53,286-47,414,26,81,46,143,112,184,195a441.81,441.81,0,0,1,42,151,429.33,429.33,0,0,1-10,138c-8,34-21,64-36,95-26,49-59,90-102,125-43,34-88,58-138,77-4,1-10,2-12,7a41,41,0,0,0,11,1c42-5,81-19,119-39,75-41,132-103,170-178,32-64,47-134,48-204,0-36-5-71-14-108-37-165-157-293-311-351-73-27-149-40-227-35-84,6-165,29-240,72-81,45-145,104-198,183-46,71-75,139-91,222-31,161,2,319,84,453-32-51-57-104-74-163a644.36,644.36,0,0,1-25-209c6-141,59-275,156-382,40-43,80-79,131-109,55-33,110-56,172-71,82-19,159-20,242-4,117,24,217,78,297,165,22,25,42,48,60,76,24,38,42,76,60,116l2,2c-5-53-29-99-57-146-5-8-10-15-15-23-96-138-238-218-399-237-208-25-418,60-550,219,76-90,174-160,289-198,108-35,218-43,332-17,124,28,228,90,312,184,77,88,124,192,138,308,15,121-10,239-75,346-60,96-144,166-246,207-134,53-286,47-414-26-81-46-143-112-184-195a441.81,441.81,0,0,1-42-151,429.33,429.33,0,0,1,10-138c8-34,21-64,36-95,26-49,59-90,102-125,43-34,88-58,138-77,4-1,10-2,12-7a41,41,0,0,0-11-1c-42,5-81,19-119,39-75,41-132,103-170,178-32,64-47,134-48,204,0,36,5,71,14,108,37,165,157,293,311,351,73,27,149,40,227,35,84-6,165-29,240-72,81-45,145-104,198-183,46-71,75-139,91-222,31-161-2-319-84-453,32,51,57,104,74,163a644.36,644.36,0,0,1,25,209c-6,141-59,275-156,382-40,43-80,79-131,109-55,33-110,56-172,71-82,19-159,20-242,4-117-24-217-78-297-165-22-25-42-48-60-76-24-38-42-76-60-116l-2-2c5,53,29,99,57,146,5,8,10,15,15,23,96,138,238,218,399,237,208,25,418-60,550-219Z"/><rect class="cls-2" x="525.11" y="393.83" width="207" height="365" rx="103.5"/><rect class="cls-3" x="473.46" y="559.49" width="309.9" height="273.13" rx="55.74"/></g></g></svg>